<?xml version="1.0" encoding="utf-8"?>
<!-- Generator: Adobe Illustrator 18.0.0, SVG Export Plug-In . SVG Version: 6.00 Build 0)  -->
<!DOCTYPE svg PUBLIC "-//W3C//DTD SVG 1.1//EN" "http://www.w3.org/Graphics/SVG/1.1/DTD/svg11.dtd">
<svg version="1.1" id="Layer_1" xmlns="http://www.w3.org/2000/svg" xmlns:xlink="http://www.w3.org/1999/xlink" x="0px" y="0px"
   viewBox="0 0 470.7 50.9" enable-background="new 0 0 470.7 50.9" xml:space="preserve">
<g>
  <defs>
    <rect id="SVGID_1_" y="0" width="470.7" height="50.9"/>
  </defs>
  <clipPath id="SVGID_2_">
    <use xlink:href="#SVGID_1_"  overflow="visible"/>
  </clipPath>
  <path clip-path="url(#SVGID_2_)" fill="#FFFFFF" d="M179.5,18.2c0,2.4-3.8,4.3-8.6,4.3c-4.7,0-8.6-1.9-8.6-4.3
    c0-2.4,3.8-4.3,8.6-4.3C175.6,13.9,179.5,15.9,179.5,18.2 M299.8,13.9c-4.7,0-8.6,1.9-8.6,4.3c0,2.4,3.8,4.3,8.6,4.3
    c4.8,0,8.6-1.9,8.6-4.3C308.4,15.9,304.6,13.9,299.8,13.9 M464.3,40.8H347.7c-13.7,0-24.7-6.9-24.7-15c0-8.1,11-15,24.7-15h116.6
    c3.6,0,6.5-2.2,6.5-4.8c0-2.7-2.9-4.8-6.5-4.8H347.7c-19.6,0-34.9,10.8-34.9,24.7c0,4.2,1.3,8.1,4.4,12.2L242.1,1.7
    c-2.2-1.1-4.3-1.7-6.8-1.7c-2.5,0-4.5,0.6-6.8,1.7l-77.1,37.3V5.4c0-2.7-3.6-4.8-8.1-4.8c-3,0-4.8,0.8-4.8,0.8L63.3,33.2l6.5,2.7
    c2,0.8,3.8,1.2,6,1.2c2.2,0,4-0.4,6-1.2l60.1-25.5v37.2c0,1.8,2.2,3.2,4.8,3.2h0.4c1.2,0,2.3-0.3,3.2-0.7l85.1-41.1L274.5,28h-72.6
    l-19.3,9.3h111.2l26.7,12.9c0.9,0.4,2,0.7,3.2,0.7c2.9,0,5.2-1.4,5.2-3.2c0-0.2,0-0.7-0.5-1.3c5.1,2.3,11.6,4.1,19.3,4h116.6
    c3.6,0,6.5-2.2,6.5-4.8C470.7,42.9,467.8,40.8,464.3,40.8 M72.9,26.8l-60-25.4c0,0-1.9-0.8-4.8-0.8C3.6,0.5,0,2.7,0,5.4v42.4
    c0,1.8,2.2,3.2,4.8,3.2c2.7,0,4.8-1.4,4.8-3.2V10.5L60.4,32L72.9,26.8z"/>
</g>
</svg>
